<?xml version="1.0" encoding="UTF-8"?>
<svg xmlns="http://www.w3.org/2000/svg" width="1637.832pt" height="1286.592pt" viewBox="0 0 1637.832 1286.592" preserveAspectRatio="xMidYMid meet">
<title>INU LAB seal</title>
<g transform="translate(-1.000000,1593.833757) scale(0.100000,-0.100000)" fill="#1A2838" stroke="none">
<path  d="M5290 15920 c-9 -16 -9 -25 -1 -33 6 -6 11 -19 11 -29 0 -9 13 -31
30 -48 38 -39 51 -65 44 -85 -5 -11 4 -26 25 -45 38 -35 39 -48 4 -56 -15 -4
-43 -22 -61 -40 -26 -26 -42 -33 -69 -32 -53 2 -60 -13 -32 -69 17 -33 45 -63
90 -96 35 -26 81 -62 103 -80 21 -17 46 -36 55 -41 35 -20 186 -139 246 -195
134 -124 196 -181 234 -211 24 -19 60 -58 80 -87 20 -29 57 -76 83 -106 46
-52 47 -54 58 -152 17 -148 24 -925 11 -1140 -6 -99 -18 -301 -26 -450 -8
-148 -19 -315 -25 -370 -6 -55 -13 -129 -15 -165 -7 -76 -17 -170 -45 -405
-25 -202 -28 -233 -35 -322 -3 -37 -7 -75 -10 -83 -2 -8 -6 -42 -10 -75 -9
-86 -23 -124 -48 -130 -87 -19 -341 -69 -382 -75 -27 -5 -86 -18 -130 -29 -44
-11 -98 -23 -120 -27 -22 -3 -43 -8 -47 -10 -3 -2 -44 -11 -90 -19 -46 -8 -92
-17 -103 -19 -239 -52 -399 -85 -435 -91 -25 -4 -52 -11 -61 -16 -8 -4 -69
-17 -135 -29 -65 -11 -148 -27 -184 -36 -70 -16 -232 -46 -370 -68 -90 -14
-308 -56 -425 -80 -38 -9 -94 -18 -124 -21 -30 -3 -71 -9 -90 -15 -58 -15
-377 -41 -494 -39 -61 1 -142 9 -185 19 -140 31 -246 62 -297 85 -27 13 -79
35 -115 51 -37 15 -86 47 -114 73 l-48 46 6 -55 c3 -30 7 -85 7 -122 2 -72 5
-79 178 -387 37 -67 51 -100 47 -117 -3 -12 -1 -35 5 -51 7 -15 17 -41 24 -58
6 -16 16 -41 21 -54 20 -49 170 -201 291 -294 23 -17 84 -68 135 -111 176
-152 335 -264 548 -387 41 -23 100 -66 131 -96 60 -57 168 -113 254 -132 64
-13 264 -6 335 12 121 32 219 71 290 117 121 77 303 164 482 230 42 16 123 50
180 75 162 74 166 75 173 75 3 0 27 10 53 21 43 20 169 66 426 154 55 19 101
33 104 31 2 -2 -6 -39 -17 -83 -11 -43 -34 -132 -50 -198 -16 -66 -46 -167
-66 -225 -20 -58 -47 -139 -60 -180 -39 -121 -154 -439 -187 -515 -17 -38 -47
-113 -68 -165 -20 -52 -50 -126 -67 -165 -17 -38 -33 -83 -37 -98 -4 -16 -18
-45 -31 -65 -13 -20 -44 -84 -68 -142 -38 -90 -222 -445 -247 -475 -4 -5 -21
-35 -38 -65 -90 -168 -230 -399 -284 -470 -10 -14 -39 -56 -65 -95 -141 -215
-181 -268 -315 -426 -209 -247 -609 -638 -892 -871 -39 -33 -91 -76 -116 -98
-97 -82 -271 -210 -287 -210 -3 0 -33 -21 -67 -48 -87 -68 -158 -117 -203
-141 -38 -21 -115 -73 -164 -110 -14 -10 -45 -30 -70 -42 -24 -13 -77 -45
-117 -71 -40 -26 -83 -50 -95 -54 -12 -3 -29 -12 -37 -19 -8 -8 -91 -53 -185
-101 -93 -48 -188 -100 -210 -114 -59 -40 -353 -186 -405 -201 -25 -7 -63 -25
-85 -39 -22 -15 -61 -32 -87 -39 -26 -8 -54 -21 -63 -31 -9 -10 -38 -21 -67
-25 -33 -5 -60 -16 -81 -35 -31 -26 -154 -93 -229 -124 -21 -8 -38 -19 -38
-24 0 -13 -67 -47 -108 -57 -54 -11 -51 -29 4 -21 92 13 231 56 325 100 84 39
215 88 479 178 79 27 282 84 340 95 46 8 -143 -64 -266 -102 -66 -21 -132 -46
-145 -56 -38 -29 -3 -24 103 17 137 53 168 62 223 68 l50 6 -53 -19 c-29 -10
-56 -21 -59 -25 -10 -9 47 -7 92 4 22 6 56 12 75 15 90 12 122 20 215 51 116
39 111 38 96 20 -7 -8 -24 -17 -39 -21 -43 -11 -132 -54 -132 -64 0 -5 -9 -12
-19 -16 -11 -3 -31 -22 -46 -41 l-28 -36 33 7 c42 9 359 128 519 194 68 28
126 50 128 48 2 -2 -16 -12 -39 -23 -24 -10 -51 -25 -60 -33 -9 -8 -45 -26
-79 -41 -64 -27 -82 -45 -56 -56 19 -7 207 55 403 134 219 88 264 109 264 125
0 19 76 50 101 42 10 -3 27 -1 38 4 14 8 20 8 23 0 2 -7 33 4 78 28 75 39 144
69 231 103 26 9 99 47 163 84 64 37 144 80 179 96 34 16 91 47 127 69 36 22
90 54 120 72 74 43 355 239 405 282 37 31 86 68 255 191 79 57 89 65 165 130
59 50 59 49 -25 -43 -47 -52 -107 -113 -135 -137 -27 -23 -85 -72 -127 -108
-42 -36 -79 -66 -83 -66 -12 0 -123 -79 -214 -152 -103 -83 -293 -202 -501
-315 -30 -17 -105 -57 -167 -91 -255 -139 -517 -268 -665 -327 -86 -34 -167
-70 -179 -79 -23 -16 -23 -16 -2 -16 11 0 54 14 94 31 99 41 108 44 89 30 -37
-26 5 -15 115 31 66 27 156 62 200 78 87 31 423 204 495 254 25 18 101 63 170
101 69 37 146 83 171 100 25 18 72 47 105 65 151 83 460 311 664 489 36 32
100 81 143 111 43 29 84 61 90 70 7 9 61 68 121 131 90 93 101 102 60 50 -80
-104 -321 -341 -432 -425 -57 -43 -113 -94 -124 -113 -13 -22 -31 -36 -49 -40
-15 -3 -38 -16 -50 -29 -12 -13 -31 -24 -41 -24 -11 0 -45 -24 -76 -53 -31
-29 -83 -70 -115 -91 -32 -21 -68 -51 -80 -65 -12 -14 -34 -32 -48 -39 -14 -8
-49 -31 -78 -53 -28 -21 -56 -39 -61 -39 -5 0 -12 -5 -16 -12 -18 -28 63 6
122 52 35 27 70 50 78 50 8 0 50 27 94 60 43 33 83 60 89 60 19 0 268 193 383
298 26 23 51 42 56 42 13 0 166 138 274 248 116 118 220 236 320 362 41 52 82
102 90 111 8 9 30 36 48 60 18 24 67 89 109 144 41 55 85 114 97 131 11 18 44
65 72 105 89 130 304 519 304 550 0 7 29 72 65 145 60 123 79 172 56 148 -5
-5 -48 -84 -95 -177 -94 -185 -123 -237 -173 -314 -38 -58 -49 -68 -30 -25 13
27 26 53 112 217 49 92 94 181 114 225 6 14 22 43 36 65 13 21 22 41 21 45 -2
3 7 23 20 45 12 22 41 77 64 123 24 45 46 82 51 82 5 0 9 5 9 12 0 6 14 41 31
77 79 165 85 183 169 471 23 80 58 189 76 243 19 55 43 145 55 200 11 56 34
145 50 197 16 52 29 102 29 112 0 10 4 18 9 18 5 0 49 -60 99 -132 50 -73 106
-155 125 -183 19 -27 73 -106 120 -175 48 -69 124 -179 171 -245 79 -111 342
-496 376 -549 8 -13 32 -50 53 -82 66 -101 182 -286 217 -349 32 -57 107 -170
149 -225 32 -41 134 -200 164 -254 38 -68 264 -407 324 -487 63 -84 235 -322
298 -413 28 -40 60 -86 73 -102 113 -145 152 -200 152 -214 0 -9 12 -27 26
-41 14 -13 50 -55 79 -94 29 -38 69 -86 89 -104 20 -19 36 -39 36 -44 0 -22
195 -256 327 -392 283 -292 378 -388 413 -413 19 -15 71 -59 115 -98 132 -118
295 -251 375 -306 41 -28 96 -69 121 -89 25 -21 77 -56 115 -77 38 -22 74 -49
80 -61 6 -12 49 -40 100 -65 49 -23 103 -54 119 -68 17 -14 66 -42 110 -63 93
-43 372 -144 430 -155 22 -4 48 -11 58 -15 12 -5 17 -3 17 8 0 12 15 14 89 11
48 -2 114 -10 147 -19 69 -18 101 -19 106 -4 2 7 25 4 67 -10 36 -12 73 -21
83 -21 31 0 20 18 -24 38 -52 24 -85 48 -77 56 3 4 21 0 40 -8 19 -8 66 -16
105 -19 47 -3 82 -12 105 -26 52 -32 105 -25 65 9 -21 17 -59 98 -51 109 3 7
15 7 29 1 60 -23 148 -31 195 -19 42 11 55 9 111 -10 35 -11 76 -21 91 -21 14
0 56 -13 92 -30 107 -48 152 -34 55 17 -28 16 -76 42 -107 58 -194 103 -179
112 88 49 79 -19 152 -34 163 -34 37 0 7 19 -72 45 -44 15 -80 31 -80 36 0 15
25 11 119 -21 110 -36 182 -49 163 -29 -11 12 -225 89 -304 109 -56 15 -195
83 -177 87 9 2 47 -8 85 -22 196 -75 240 -90 364 -132 74 -25 187 -63 250 -85
184 -63 250 -82 258 -74 13 13 -36 43 -82 50 -24 4 -56 16 -69 27 -14 10 -35
19 -46 19 -12 0 -49 13 -84 28 -34 16 -84 34 -112 41 -147 39 -296 86 -345
109 l-55 26 33 4 c18 2 91 -10 162 -27 71 -17 154 -31 185 -31 39 0 70 -7 103
-24 27 -13 75 -32 108 -41 32 -9 84 -23 114 -31 71 -21 82 -21 87 -7 3 7 -8
18 -24 24 -15 7 -71 32 -124 56 -52 23 -106 43 -120 44 l-24 0 24 10 c38 15
176 -9 243 -42 32 -16 64 -29 72 -29 30 0 26 20 -8 42 -20 13 -36 26 -36 31 0
15 68 6 135 -19 155 -58 167 -37 19 32 -52 24 -94 49 -94 54 0 6 9 6 23 1 53
-20 77 -22 77 -6 0 19 -31 34 -155 76 -116 40 -102 50 29 20 50 -12 105 -23
121 -25 17 -2 48 -7 70 -11 40 -8 40 -8 21 13 -10 11 -31 24 -47 27 -16 4 -32
11 -36 17 -4 8 0 9 13 4 29 -11 150 -17 139 -7 -6 5 -46 19 -90 31 -94 26
-286 97 -299 110 -20 20 4 20 75 0 72 -20 159 -27 145 -12 -4 4 -31 14 -59 24
-48 15 -49 16 -19 17 17 1 32 6 32 11 0 6 7 10 15 10 8 0 15 -4 15 -10 0 -5
15 -9 33 -9 32 1 187 -16 242 -27 22 -5 27 -3 19 5 -6 6 -42 18 -80 26 -170
37 -249 62 -246 77 1 9 -9 20 -25 26 -29 11 -236 72 -310 92 -24 6 -43 15 -43
20 0 12 -4 12 61 0 30 -6 65 -13 79 -15 14 -3 54 -14 90 -25 36 -11 72 -20 80
-19 8 0 -21 12 -65 26 -96 29 -252 90 -280 107 -11 7 -51 23 -88 35 -38 13
-66 25 -64 27 2 2 30 -5 62 -16 32 -11 73 -20 91 -20 37 0 181 -43 234 -70 79
-40 237 -87 313 -93 43 -4 86 -11 96 -17 10 -5 21 -6 25 -3 15 16 216 -17 255
-41 6 -4 11 -3 11 1 0 9 -104 56 -150 68 -39 11 -330 128 -327 132 2 2 30 -6
62 -17 115 -40 149 -18 45 29 -39 17 -73 31 -77 31 -3 0 -15 7 -25 17 -10 9
-60 33 -111 53 -50 21 -152 65 -226 99 -74 34 -139 61 -145 61 -6 0 -62 25
-123 55 -62 30 -114 55 -117 55 -4 0 -176 83 -666 323 -58 28 -134 67 -170 88
-36 20 -82 42 -103 48 -20 7 -58 27 -85 45 -26 18 -82 52 -124 76 -88 49 -96
65 -16 27 29 -13 96 -41 148 -61 52 -21 109 -44 125 -53 17 -8 127 -58 245
-110 118 -52 261 -115 318 -140 57 -25 106 -42 109 -39 10 10 -6 21 -94 66
-46 22 -83 47 -83 54 0 17 -22 26 -59 26 -15 0 -31 4 -37 9 -8 9 -103 57 -357
181 -60 29 -111 59 -114 67 -3 7 -18 13 -33 13 -15 0 -38 8 -51 18 -13 10 -54
35 -91 55 -37 21 -70 42 -74 48 -3 6 -27 20 -53 30 -25 11 -81 41 -123 65 -43
25 -82 43 -88 39 -6 -4 -24 5 -40 19 -17 14 -78 48 -137 76 -59 28 -127 65
-151 81 -24 16 -67 41 -96 55 -28 15 -58 32 -66 39 -8 8 -53 35 -100 61 -47
25 -87 49 -90 53 -5 6 -20 15 -107 62 -31 17 -77 48 -102 69 -25 21 -104 77
-176 124 -71 47 -170 118 -219 158 -50 40 -100 78 -112 84 -25 13 -232 179
-254 203 -19 22 -144 120 -186 146 -17 11 -83 68 -145 126 -63 59 -150 135
-194 170 -83 66 -509 489 -598 595 -29 33 -117 132 -196 220 -133 147 -267
309 -316 383 -11 16 -76 101 -145 187 -177 222 -271 343 -299 384 -13 19 -43
55 -66 80 -23 25 -57 70 -75 100 -18 30 -49 75 -69 100 -21 25 -68 90 -107
145 -38 55 -79 114 -91 130 -13 17 -47 66 -77 110 -164 240 -225 326 -251 355
-22 25 -105 161 -105 172 0 8 30 17 170 53 58 15 155 42 215 61 61 18 121 35
135 38 14 3 79 19 145 36 66 17 161 39 210 50 217 45 282 58 315 63 19 2 62
10 95 16 51 9 338 56 470 76 22 3 74 10 115 15 41 5 87 12 103 15 15 3 39 7
55 10 109 21 899 30 930 11 6 -4 69 -11 140 -16 71 -5 151 -14 176 -21 26 -6
68 -9 94 -6 63 8 179 45 222 71 19 12 46 27 60 35 14 7 39 33 57 57 l32 43
-29 -6 c-37 -7 -41 13 -5 27 13 5 43 21 65 35 34 21 39 29 30 41 -10 11 -6 20
19 43 18 16 44 31 59 33 38 4 33 21 -10 33 -21 6 -57 27 -81 47 l-44 37 -2
111 c-1 87 2 115 15 135 23 35 12 92 -37 188 -21 44 -44 100 -50 125 -9 35
-24 59 -59 93 -59 56 -228 195 -278 228 -21 13 -77 50 -126 83 -48 32 -100 61
-115 64 -14 3 -47 14 -73 25 -26 10 -53 19 -61 19 -8 0 -33 15 -57 33 -86 65
-105 75 -117 65 -14 -12 -42 2 -100 48 -40 33 -63 42 -63 26 0 -4 4 -12 9 -17
21 -23 63 -108 50 -103 -8 4 -50 21 -94 38 -115 47 -242 90 -264 90 -10 0 -38
7 -62 16 -24 8 -75 17 -114 19 -38 2 -90 11 -114 19 -24 9 -59 16 -78 16 -19
0 -55 11 -81 25 -54 29 -72 31 -72 10 0 -8 4 -15 8 -15 11 0 82 -134 82 -154
0 -10 -7 -12 -22 -9 -20 5 -19 1 12 -31 27 -28 34 -43 32 -70 -2 -20 4 -38 13
-46 70 -58 -113 -147 -645 -312 -370 -115 -501 -153 -630 -178 -30 -6 -102
-25 -160 -42 -58 -16 -137 -39 -176 -49 -39 -10 -79 -22 -89 -25 -17 -7 -18
-2 -11 67 8 84 45 270 76 374 11 39 25 95 30 125 5 30 14 75 19 100 5 25 12
65 16 90 3 25 13 59 21 75 8 17 22 75 30 130 21 147 24 162 45 255 11 47 29
126 40 175 11 50 29 126 40 170 12 44 23 89 26 100 3 11 9 53 13 94 12 101 16
117 55 181 21 35 36 75 40 110 4 30 16 76 26 102 11 30 16 59 13 78 -7 32 11
142 33 205 8 22 16 55 19 72 7 45 61 202 75 219 6 7 25 58 42 111 27 89 30
110 29 221 -1 88 -6 130 -17 152 -8 16 -15 47 -15 69 0 29 -8 51 -33 83 -18
24 -47 68 -65 99 -42 74 -96 128 -157 159 -28 14 -77 47 -110 73 -127 99 -202
151 -265 180 -36 16 -96 44 -135 62 -86 41 -394 142 -485 159 -14 2 -61 14
-105 25 -44 11 -98 23 -120 26 -22 4 -83 15 -135 25 -216 43 -333 58 -490 65
-74 3 -164 8 -200 11 -141 11 -277 25 -312 30 -30 5 -38 2 -48 -16z m2095
-3087 c-4 -27 -24 -138 -46 -248 -80 -405 -89 -453 -114 -600 -59 -345 -64
-365 -86 -365 -16 0 -9 46 67 427 96 482 173 833 182 833 2 0 1 -21 -3 -47z
m-319 -945 c-4 -35 -13 -94 -20 -133 -8 -38 -17 -87 -20 -107 -6 -34 -21 -56
-32 -46 -7 8 64 348 73 348 2 0 2 -28 -1 -62z m1779 -3977 c44 -48 78 -91 73
-91 -3 0 -30 29 -62 65 -31 36 -55 65 -52 65 3 0 22 -18 41 -39z m425 -445 c0
-5 -13 3 -30 19 -16 16 -30 33 -30 39 0 5 14 -3 30 -19 17 -16 30 -33 30 -39z
m65 -56 c12 -19 -12 -10 -31 11 -19 22 -19 22 3 10 12 -6 25 -16 28 -21z m155
-147 c0 -8 -74 54 -100 83 -14 15 3 4 38 -26 34 -29 62 -55 62 -57z m-1262
-135 c48 -72 76 -122 65 -115 -6 4 -25 31 -42 60 -17 28 -38 62 -47 75 -9 12
-14 22 -11 22 3 0 19 -19 35 -42z m161 -243 c11 -22 30 -56 41 -75 l21 -35
-22 28 c-13 15 -47 66 -76 115 -47 76 -49 82 -19 47 20 -22 45 -58 55 -80z
m-2693 -267 c-9 -12 -16 -19 -16 -15 0 11 24 47 28 42 2 -2 -3 -14 -12 -27z
m-246 -332 c0 -8 -156 -205 -195 -247 -55 -60 -55 -39 0 28 26 32 77 95 114
140 58 72 81 94 81 79z m6145 -418 c25 -11 34 -28 15 -28 -5 0 -10 5 -10 10 0
6 -6 10 -14 10 -8 0 -18 5 -21 10 -8 13 -2 13 30 -2z m-6765 -79 c-7 -11 -14
-18 -17 -15 -3 3 0 12 7 21 18 21 23 19 10 -6z m7034 -154 c25 -19 9 -19 -24
0 -14 8 -19 14 -10 14 8 0 24 -6 34 -14z m-2464 -185 c12 -16 19 -30 16 -30
-2 0 -14 14 -26 30 -12 17 -19 30 -16 30 2 0 14 -13 26 -30z m-6890 -906 c0
-6 -65 -34 -77 -33 -4 0 10 9 32 20 45 21 45 21 45 13z m-365 -43 c-13 -13
-116 -53 -122 -47 -2 2 24 15 59 29 74 30 75 30 63 18z m-465 -101 c-8 -5 -22
-9 -30 -9 -10 0 -8 3 5 9 27 12 43 12 25 0z"/>
<path d="M9965 14594 c-29 -13 -118 -12 -290 1 -93 7 -214 -9 -230 -31 -11
-15 -25 -18 -70 -17 -74 3 -78 -13 -21 -73 25 -26 46 -55 46 -63 0 -9 22 -32
48 -51 152 -112 532 -476 532 -510 0 -7 -18 -9 -55 -5 -63 8 -70 -2 -22 -30
l32 -20 -77 -5 c-42 -3 -79 -8 -83 -11 -6 -6 59 -49 74 -49 5 0 15 -7 22 -16
8 -9 33 -25 57 -35 24 -10 41 -23 38 -27 -6 -10 -204 -8 -258 3 -23 4 -38 3
-38 -3 0 -5 24 -13 53 -16 28 -4 72 -16 96 -27 24 -11 58 -22 74 -25 16 -2 38
-9 48 -14 10 -6 33 -10 51 -10 18 0 60 -12 93 -26 66 -28 110 -43 200 -69 33
-10 78 -26 100 -35 149 -65 184 -80 193 -80 6 0 26 -16 45 -35 20 -20 50 -41
68 -47 18 -6 51 -23 73 -38 152 -100 219 -141 272 -167 34 -17 79 -44 100 -60
25 -20 61 -35 102 -43 34 -7 65 -17 68 -21 9 -15 115 -10 197 8 67 15 84 23
112 54 18 20 36 43 41 51 5 8 30 29 56 46 39 27 49 40 62 86 9 30 16 57 16 61
0 3 12 32 27 63 26 55 26 57 10 101 -9 26 -20 74 -26 109 -6 35 -21 86 -34
115 -14 29 -30 70 -37 92 -14 43 -37 80 -85 134 -110 126 -180 198 -203 210
-15 8 -56 36 -91 64 -36 28 -128 82 -206 121 -172 86 -192 95 -325 142 -181
64 -284 100 -300 107 -14 5 -215 50 -365 82 -94 20 -157 23 -190 9z"/>
<path d="M6281 7597 c-33 -69 -35 -77 -23 -77 10 0 66 129 59 136 -3 3 -19
-24 -36 -59z"/>
<path d="M12926 5171 c16 -17 104 -51 104 -41 0 12 -73 50 -97 50 -11 0 -13
-3 -7 -9z"/>
<path d="M13080 5110 c0 -5 2 -10 4 -10 2 0 20 -7 40 -15 46 -20 47 -4 1 18
-42 20 -45 20 -45 7z"/>
<path d="M3935 4914 c-11 -9 -40 -25 -65 -36 -41 -19 -160 -96 -160 -104 0
-14 47 2 90 31 29 19 57 35 63 35 18 0 106 64 107 78 0 16 -11 15 -35 -4z"/>
<path d="M2493 4360 c-82 -29 -173 -72 -173 -81 0 -14 20 -10 110 22 47 17
100 35 118 40 33 10 45 40 15 38 -10 0 -41 -9 -70 -19z"/>
<path d="M1463 4330 c-13 -5 -23 -12 -23 -16 0 -8 53 5 65 17 12 12 -12 11
-42 -1z"/>
<path d="M12395 3720 c-5 -8 23 -23 74 -39 41 -13 71 -14 71 -3 0 12 -139 52
-145 42z"/>
<path d="M13235 3703 c29 -29 357 -125 372 -109 11 11 -2 17 -130 61 -117 41
-265 70 -242 48z"/>
</g></svg>